g IceWall_Bunker_New
v 1.748924 0.3235991 -0.5542879
v 1.603012 0.08128858 -0.4756929
v 1.90007 0.1234143 -0.451977
v 1.920914 0.5232616 -0.4928073
v 1.633667 1.079052 -0.4222583
v 1.881676 0.7247521 -0.4514788
v 1.48101 0.3741966 -0.4463367
v 1.359318 0.08584225 -0.2231994
v 1.288116 0.3803125 -0.2406464
v 0.8936386 0.1978382 0.115221
v 0.9738235 0.6767843 0.07126813
v 1.250448 0.9688386 -0.2025557
v 1.202507 1.552648 -0.1431653
v 1.047106 1.064957 -0.003281474
v 0.8084651 1.026129 0.2472116
v 0.5869837 0.4542173 0.3974457
v 0.5058541 0.8683054 0.4187947
v 0.7254486 1.34872 0.3594472
v 0.1772013 0.3198289 0.4693851
v 0.1634738 0.002664685 0.5077852
v 0.4977217 0.0827409 0.3908252
v 0.03194064 0.8136557 0.4752312
v -0.1816106 1.409031 0.4778521
v -0.205719 0.06858659 0.5090216
v 0.8262445 1.669691 0.2675126
v 0.6153107 1.846153 0.4444335
v 1.403038 2.316047 -0.1689259
v 0.2894226 1.582957 0.4942815
v 0.1980686 1.919188 0.5942872
v 1.132996 2.217043 0.03650891
v 1.285652 2.394161 0.1066491
v 1.201664 2.315114 0.1788101
v 1.430199 2.410089 -0.01141806
v 1.609253 2.351635 -0.1574045
v 1.687057 1.986526 -0.3778836
v 0.3803329 2.277139 0.6229805
v 0.694416 2.309239 0.4307598
v 0.8137016 2.124475 0.2806944
v 1.112747 2.330539 0.2504866
v 0.266922 2.221613 0.8044842
v 0.9223251 2.209694 0.4034346
v 0.8449211 2.312727 0.4623045
v 0.6750641 2.413987 0.6099908
v 0.5032768 2.368813 0.7415081
v 0.4059906 2.408149 0.8011311
v 0.3004911 2.341805 0.8069514
v 1.794312 2.033939 -0.3166138
v 1.806358 1.786495 -0.3585091
v 1.739304 1.494213 -0.5564163
v 1.856438 1.673997 -0.4188091
v 1.851318 1.589551 -0.4259008
v 1.90696 1.428302 -0.4815192
v 1.830894 1.116533 -0.4027202
v 1.835564 0.9239298 -0.3799003
v -0.1902504 2.193356 0.6927913
v 0.07508278 2.299484 0.6818184
v -0.06757355 2.321008 0.7838043
v 0.1298409 2.349508 0.7942251
v -0.1494713 2.231946 0.879784
v -0.4685574 2.380862 0.8785366
v -0.7353153 2.358494 0.7623228
v -0.5764847 2.217043 0.6278919
v -0.619339 1.376949 0.4486041
v -0.4231873 0.6526908 0.4668427
v -0.9116364 0.7934045 0.2884522
v -1.14645 0.3201368 0.04601285
v -1.13028 1.040881 0.1545945
v -1.000038 1.233143 0.209984
v -0.7414474 0.1438401 0.410942
v -0.508049 0.04735148 0.4598693
v -1.297958 0.8136557 -0.09951776
v -1.56649 0.9037346 -0.3884581
v -1.664635 1.184407 -0.5079497
v -1.536865 0.3794029 -0.4267426
v -1.474297 0.006371737 -0.3125764
v -1.17849 0.003005266 0.06333914
v -1.045139 0.05052578 0.1873016
v -1.688881 0.02156413 -0.4805375
v -1.787544 0.4419003 -0.6307831
v -1.73362 0.595458 -0.5193787
v -1.897667 0.7347821 -0.4912567
v -1.921623 0.9819508 -0.4945525
v -1.925102 0.6219622 -0.5336761
v -1.912407 0.5369381 -0.5336456
v -1.949219 0.2197874 -0.5624237
v -1.875984 0.007594585 -0.482071
v -1.949486 0.455206 -0.582962
v -1.88726 1.165643 -0.4470671
v -1.980049 1.323931 -0.5381467
v -1.794151 1.423112 -0.6085355
v -1.991928 1.575665 -0.5434263
v -1.774559 1.762108 -0.5014951
v -1.974335 1.777104 -0.4683683
v -1.48156 1.571515 -0.2722096
v -1.919052 1.902808 -0.4063566
v -1.578584 1.917095 -0.310903
v -1.392426 2.250784 -0.04104578
v -0.8255157 1.676431 0.3979571
v -1.030312 2.309239 0.4418568
v -1.607925 2.263094 -0.05325282
v -1.681061 2.349508 -0.1317593
v -1.754692 2.128802 -0.4060055
v -1.838898 2.321008 -0.3135067
v -1.543846 2.298775 0.03297462
v -1.432583 2.38397 0.1849045
v -1.226982 2.413987 0.434235
v -1.049385 2.312727 0.5766605
v -0.9761353 2.209694 0.6045002
v -0.8592987 2.025392 0.4323085
v -1.930321 2.091293 -0.4131314
v 1.88311 0.08128858 -0.2200719
v 1.638885 -3.576279E-07 -0.2007588
v 1.515877 0.009215474 0.01663342
v 1.28212 -2.384186E-07 0.1213304
v 1.402103 0.1059828 0.3060197
v 1.708336 0.09610498 -0.02379043
v 1.822578 0.04260886 -0.3778548
v 1.90007 0.1234143 -0.451977
v 1.385483 0.009217143 -0.1399384
v 1.603012 0.08128858 -0.4756929
v 1.359318 0.08584225 -0.2231994
v 1.067623 0.04734695 0.1007756
v 0.7604995 0.008452654 0.4183698
v 1.01402 0.003879786 0.5285782
v 0.7332038 0.01377034 0.808834
v 0.3225517 -0.009065628 0.706231
v 0.5068502 0.006747365 0.834473
v 0.2976856 0.04649341 0.8963079
v -0.03201485 0.04213798 0.8920311
v -0.04812527 0.02037621 0.7318209
v 0.1634738 0.002664685 0.5077852
v -0.205719 0.06858659 0.5090216
v 0.4977217 0.0827409 0.3908252
v 0.8936386 0.1978382 0.115221
v -0.3556442 -5.960464E-07 0.8447913
v -0.5583038 -3.576279E-07 0.66164
v -0.5810928 0.01620138 0.8440188
v -0.9710693 0.007753491 0.6009063
v -0.8533745 0.003877521 0.4752134
v -1.261735 0.0212388 0.4363785
v -1.045139 0.05052578 0.1873016
v -1.17849 0.003005266 0.06333914
v -1.49884 -0.009065509 -0.03977975
v -1.604825 -0.00848484 0.1780011
v -1.811546 0.004190207 -0.1221085
v -1.875984 0.007594585 -0.482071
v -2.000153 0.0411098 -0.3732454
v -1.474297 0.006371737 -0.3125764
v -1.688881 0.02156413 -0.4805375
v -0.7414474 0.1438401 0.410942
v -0.508049 0.04735148 0.4598693
v 1.01402 0.003879786 0.5285782
v 1.402103 0.1059828 0.3060197
v 1.01402 0.003879786 0.5285782
v 1.402103 0.1059828 0.3060197
v 1.961349 0.3235991 -0.3223791
v 1.90007 0.1234143 -0.451977
v 1.88311 0.08128858 -0.2200719
v 1.920914 0.5232616 -0.4928073
v 1.90107 0.7089821 -0.2428932
v 1.881676 0.7247521 -0.4514788
v 1.813103 0.3741966 -0.0739155
v 1.708336 0.09610498 -0.02379043
v 1.778801 0.861255 0.005300596
v 1.835564 0.9239298 -0.3799003
v 1.402103 0.1059828 0.3060197
v 1.830711 1.084862 -0.1824731
v 1.598892 1.125523 0.09114756
v 1.830894 1.116533 -0.4027202
v 1.958794 1.494212 -0.3103826
v 1.809963 1.722625 -0.1887489
v 1.90696 1.428302 -0.4815192
v 1.851318 1.589551 -0.4259008
v 1.856438 1.673997 -0.4188091
v 1.806358 1.786495 -0.3585091
v 1.835548 1.986526 -0.206639
v 1.794312 2.033939 -0.3166138
v 1.609253 2.351635 -0.1574045
v 1.579216 2.316047 0.04693736
v 1.657745 1.956236 0.09466583
v 1.430199 2.410089 -0.01141806
v 1.095921 1.783184 0.5632689
v 1.285652 2.394161 0.1066491
v 1.022095 2.124475 0.5482105
v 0.6064196 2.278053 0.8318666
v 1.060923 1.466393 0.6190398
v 0.5799487 1.532971 0.8221962
v 1.201664 2.315114 0.1788101
v 0.4995365 1.795317 0.8626587
v 0.5231695 1.215695 0.8191968
v 0.7787543 1.103572 0.7222444
v 0.6765254 0.6152146 0.8480768
v 0.2114563 1.231381 0.9277488
v 0.5068502 0.006747365 0.834473
v 0.7886267 0.4135424 0.7960567
v 0.9671249 0.7934044 0.6923027
v 1.267666 1.179613 0.4609662
v 0.7332038 0.01377034 0.808834
v 1.216892 0.4366729 0.3967743
v 1.541117 0.6223408 0.1595199
v 0.1668854 0.3794025 0.945015
v 0.2976856 0.04649341 0.8963079
v -0.03201485 0.04213798 0.8920311
v -0.4212494 0.1556652 0.9329547
v -0.3285141 0.8647568 0.8887788
v -0.3556442 -5.960464E-07 0.8447913
v -0.5810928 0.01620138 0.8440188
v -1.00515 0.1708128 0.7638015
v -0.7939491 0.4829397 0.8448524
v -1.071373 0.5064049 0.7150192
v -1.226997 0.7934044 0.5718536
v -1.426414 0.6152148 0.3459091
v -0.9710693 0.007753491 0.6009063
v -1.261735 0.0212388 0.4363785
v -1.515167 0.08311927 0.3337707
v -1.662437 0.319829 0.1380005
v -1.604825 -0.00848484 0.1780011
v -1.811546 0.004190207 -0.1221085
v -1.894539 0.1832992 -0.06373602
v -0.893322 1.232584 0.8502504
v -1.238007 1.200475 0.5311433
v -1.557789 1.142412 0.3027391
v -1.88166 0.9037345 -0.1316222
v -0.5489883 1.125523 0.9489175
v -1.617523 1.423797 0.198044
v -1.813087 1.231381 -0.05531296
v -1.989899 0.9340717 -0.3838195
v -2.000153 0.0411098 -0.3732454
v -2.05191 0.4419003 -0.4144135
v -1.963387 0.595458 -0.3310547
v -1.897667 0.7347821 -0.4912567
v -1.921623 0.9819508 -0.4945525
v -1.925102 0.6219622 -0.5336761
v -1.912407 0.5369381 -0.5336456
v -1.949219 0.2197874 -0.5624237
v -1.875984 0.007594585 -0.482071
v -1.949486 0.455206 -0.582962
v -1.381227 1.685122 0.4521171
v -1.841335 1.744305 -0.03286718
v -1.717896 2.164968 0.05456577
v -1.94117 2.128802 -0.2526852
v -1.838898 2.321008 -0.3135067
v -1.681061 2.349508 -0.1317593
v -1.607925 2.263094 -0.05325282
v -1.543846 2.298775 0.03297462
v -1.432583 2.38397 0.1849045
v -1.930321 2.091293 -0.4131314
v -1.919052 1.902808 -0.4063566
v -2.022438 1.762108 -0.2984006
v -1.88726 1.165643 -0.4470671
v -1.980049 1.323931 -0.5381467
v -1.991928 1.575665 -0.5434263
v -1.974335 1.777104 -0.4683683
v -1.414522 2.236174 0.2840834
v -1.226982 2.413987 0.434235
v -1.22168 2.309239 0.6008304
v -1.049385 2.312727 0.5766605
v -1.111504 2.124475 0.6966785
v -1.066292 1.783184 0.7522433
v -1.105255 1.466393 0.7060015
v -0.9761353 2.209694 0.6045002
v -0.6277847 2.316047 0.9205358
v -0.7353153 2.358494 0.7623228
v -0.4685574 2.380862 0.8785366
v -0.4229813 1.953755 0.9480478
v -0.1915855 1.671236 0.9030516
v 0.166275 1.918755 0.9508483
v -0.1494713 2.231946 0.879784
v 0.1323547 2.299633 0.9277791
v -0.06757355 2.321008 0.7838043
v 0.1298409 2.349508 0.7942251
v 0.266922 2.221613 0.8044842
v 0.3187675 1.949455 0.8941915
v 0.4059906 2.408149 0.8011311
v 0.5032768 2.368813 0.7415081
v 0.6750641 2.413987 0.6099908
v 0.8449211 2.312727 0.4623045
v 0.9223251 2.209694 0.4034346
v 1.112747 2.330539 0.2504866
v 0.3004911 2.341805 0.8069514
vt 0.1618177 0.1729303
vt 0.1905003 0.1344988
vt 0.1377167 0.1360739
vt 0.1314922 0.204532
vt 0.1758357 0.2996738
vt 0.1367041 0.2389059
vt 0.2066198 0.1847706
vt 0.2499273 0.1397232
vt 0.2520766 0.1905365
vt 0.3418242 0.1694113
vt 0.3201057 0.246617
vt 0.2510916 0.2883885
vt 0.2540436 0.3853934
vt 0.2968327 0.3090515
vt 0.3553218 0.3085469
vt 0.4057409 0.2165179
vt 0.4159344 0.2860873
vt 0.372771 0.3658953
vt 0.4740113 0.1962034
vt 0.4766846 0.1444796
vt 0.4201159 0.1565527
vt 0.4975178 0.2789531
vt 0.5335057 0.383056
vt 0.5347922 0.1532471
vt 0.3434665 0.4176183
vt 0.3873293 0.4534741
vt 0.2106996 0.5048937
vt 0.4493579 0.4124143
vt 0.464397 0.4766161
vt 0.2675214 0.4978923
vt 0.24942 0.5344614
vt 0.2706504 0.52816
vt 0.2178117 0.5328206
vt 0.1795419 0.5156655
vt 0.1597515 0.4477832
vt 0.4235903 0.5326251
vt 0.3651334 0.5277835
vt 0.3362581 0.4948315
vt 0.2881668 0.5309828
vt 0.4566788 0.5398863
vt 0.3293653 0.5245954
vt 0.3449351 0.5380017
vt 0.3779507 0.5574893
vt 0.4128033 0.5615959
vt 0.430735 0.5671415
vt 0.4466304 0.5561419
vt 0.142765 0.4609432
vt 0.133366 0.420349
vt 0.1472432 0.365694
vt 0.1257072 0.3989707
vt 0.1234893 0.3844069
vt 0.1215148 0.3515888
vt 0.1422741 0.302271
vt 0.1414667 0.2738652
vt 0.5342319 0.5267037
vt 0.4910293 0.538752
vt 0.5117385 0.5501707
vt 0.4817152 0.5549468
vt 0.5272293 0.5577035
vt 0.5773457 0.5728189
vt 0.6226493 0.5611309
vt 0.6016177 0.5266398
vt 0.6112019 0.3766962
vt 0.5749903 0.250864
vt 0.6631196 0.272606
vt 0.712685 0.1894083
vt 0.7082789 0.3108595
vt 0.6879859 0.3461924
vt 0.6225613 0.1630896
vt 0.5842313 0.1502341
vt 0.755335 0.2678413
vt 0.8225974 0.2762973
vt 0.8529715 0.3211639
vt 0.814217 0.1890896
vt 0.7882571 0.1305182
vt 0.7106122 0.1366937
vt 0.6827316 0.1460196
vt 0.8327998 0.1287646
vt 0.8639146 0.1925483
vt 0.8534651 0.2208527
vt 0.8831835 0.2416894
vt 0.891467 0.281656
vt 0.8863376 0.2226992
vt 0.8839073 0.2094122
vt 0.8815112 0.1529436
vt 0.8617587 0.1196877
vt 0.8886449 0.1919324
vt 0.891325 0.3122903
vt 0.9087975 0.3411564
vt 0.8799555 0.3586771
vt 0.9105264 0.3850446
vt 0.8722806 0.4137799
vt 0.9043625 0.4213772
vt 0.8092928 0.3898362
vt 0.8918844 0.4432265
vt 0.8325602 0.4462436
vt 0.7851076 0.5060447
vt 0.652249 0.42772
vt 0.6914874 0.533866
vt 0.8170724 0.5166233
vt 0.8371159 0.5258508
vt 0.8674448 0.478275
vt 0.8745496 0.5134904
vt 0.8009341 0.5282847
vt 0.7693334 0.5453124
vt 0.7175583 0.5583757
vt 0.6779945 0.5486307
vt 0.6644563 0.5350024
vt 0.6593082 0.4885607
vt 0.8947237 0.4740319
vt 0.8246304 0.08477058
vt 0.7875465 0.06357467
vt 0.7499645 0.08267188
vt 0.7068082 0.07523247
vt 0.7074616 0.1181015
vt 0.7823433 0.09958187
vt 0.8278875 0.0573494
vt 0.8486956 0.05367913
vt 0.7468185 0.04722173
vt 0.8107044 0.02308849
vt 0.7509885 0.02719253
vt 0.6769345 0.05041742
vt 0.6016942 0.07134061
vt 0.630875 0.1105416
vt 0.5670491 0.1283842
vt 0.5127254 0.08465338
vt 0.5319941 0.1155809
vt 0.5007058 0.1129687
vt 0.4539698 0.102585
vt 0.45344 0.07707268
vt 0.4973771 0.04258847
vt 0.4244995 0.03594416
vt 0.5624772 0.04224819
vt 0.6475079 0.0221007
vt 0.4058934 0.09856591
vt 0.367506 0.0770506
vt 0.3730296 0.1064463
vt 0.3024277 0.0929741
vt 0.3096853 0.06568432
vt 0.2510192 0.09739268
vt 0.2536634 0.04347879
vt 0.2218001 0.04463488
vt 0.1736961 0.06797445
vt 0.1849039 0.1039224
vt 0.1294073 0.0931288
vt 0.08229017 0.05991846
vt 0.08000979 0.08649313
vt 0.146517 0.03474194
vt 0.103581 0.03871226
vt 0.3205023 0.0342111
vt 0.366441 0.03967881
vt 0.630875 0.1105416
vt 0.7074616 0.1181015
vt 0.630875 0.1105416
vt 0.7074616 0.1181015
vt 0.917741 0.6302104
vt 0.938973 0.5952659
vt 0.8977707 0.5894149
vt 0.9467435 0.6639426
vt 0.9037136 0.6937411
vt 0.9382102 0.6987243
vt 0.8701602 0.6389061
vt 0.8525891 0.5919068
vt 0.8586772 0.7204735
vt 0.923243 0.7325643
vt 0.7766544 0.5942221
vt 0.8891869 0.7595437
vt 0.827316 0.7659407
vt 0.9275575 0.7631764
vt 0.9169514 0.8275653
vt 0.8878802 0.8667383
vt 0.9450294 0.8164105
vt 0.9368415 0.8485969
vt 0.9303313 0.8619247
vt 0.9167168 0.8804758
vt 0.8904457 0.9111792
vt 0.906719 0.9238753
vt 0.8641855 0.9785703
vt 0.8322772 0.965055
vt 0.8339124 0.9043607
vt 0.8224398 0.9929563
vt 0.7119059 0.8794357
vt 0.7896845 0.9914109
vt 0.7044309 0.9386995
vt 0.6199863 0.9618065
vt 0.7010717 0.8258713
vt 0.6133173 0.8378509
vt 0.7673274 0.9854375
vt 0.5991254 0.8821989
vt 0.6039436 0.7843244
vt 0.6499772 0.7651861
vt 0.6252097 0.6825494
vt 0.5482193 0.7873111
vt 0.5961311 0.5802674
vt 0.6448673 0.6483338
vt 0.6801412 0.7118291
vt 0.7436972 0.7763293
vt 0.6350204 0.5812528
vt 0.7432014 0.6504318
vt 0.8106139 0.6812864
vt 0.5375195 0.6439966
vt 0.5593181 0.5877433
vt 0.5029615 0.5871736
vt 0.4379825 0.608707
vt 0.4560979 0.7268618
vt 0.4469932 0.5785268
vt 0.4077861 0.5847592
vt 0.337623 0.6144642
vt 0.3754286 0.6659557
vt 0.3236443 0.6696278
vt 0.2882181 0.7176973
vt 0.237697 0.686981
vt 0.3279638 0.5775928
vt 0.2706007 0.5860956
vt 0.2250234 0.5987351
vt 0.1845129 0.6369764
vt 0.1967971 0.5803469
vt 0.1353254 0.5808703
vt 0.1331651 0.6148764
vt 0.3606138 0.7914493
vt 0.2819912 0.7861352
vt 0.2160062 0.7764238
vt 0.125151 0.7352296
vt 0.4202572 0.7718146
vt 0.1961492 0.8243241
vt 0.1416587 0.7913961
vt 0.0803721 0.7400745
vt 0.07995874 0.5883312
vt 0.0711441 0.6548995
vt 0.08707052 0.6835791
vt 0.05732113 0.708323
vt 0.06063324 0.7508163
vt 0.05055726 0.6898758
vt 0.04817885 0.6762267
vt 0.04441482 0.6169444
vt 0.05361271 0.5775258
vt 0.04060459 0.6589873
vt 0.255333 0.868064
vt 0.143411 0.8793955
vt 0.1693013 0.9506841
vt 0.1069108 0.9455994
vt 0.1055698 0.9827929
vt 0.1456802 0.9892278
vt 0.1673852 0.9816358
vt 0.1856645 0.9838148
vt 0.2191011 0.9900481
vt 0.08011419 0.9432437
vt 0.07971936 0.9110175
vt 0.09078366 0.8801552
vt 0.07277679 0.7811126
vt 0.05342329 0.8095657
vt 0.05119473 0.8515945
vt 0.06417358 0.8870486
vt 0.23233 0.9631518
vt 0.272713 0.9943041
vt 0.2932107 0.9701467
vt 0.3151934 0.9849378
vt 0.319218 0.9422538
vt 0.3287641 0.8838754
vt 0.3182312 0.8310375
vt 0.3313206 0.9726401
vt 0.4090419 0.9687757
vt 0.3824489 0.9854584
vt 0.4342189 0.9827252
vt 0.4429894 0.9096978
vt 0.4807693 0.8616632
vt 0.5410802 0.9031121
vt 0.4878781 0.9584389
vt 0.5342296 0.96411
vt 0.5012999 0.983119
vt 0.5381864 0.9849441
vt 0.563924 0.9594487
vt 0.5686215 0.9091884
vt 0.5908312 0.9878718
vt 0.6114255 0.986987
vt 0.6486329 0.9940059
vt 0.6876519 0.9832125
vt 0.7069041 0.9730563
vt 0.7484304 0.986475
vt 0.5726805 0.9784683
vn 0.02512191 -0.07210255 -0.9970807
vn -0.2775398 -0.6065256 -0.7450492
vn 0.6672156 -0.4892485 -0.5616577
vn 0.7291813 0.1487136 -0.6679662
vn -0.251415 -0.03324839 -0.9673081
vn 0.7334946 0.2932136 -0.6131976
vn -0.5897069 -0.00404791 -0.8076072
vn -0.6058273 -0.4908638 -0.6261199
vn -0.6752356 -0.05027356 -0.7358868
vn -0.6141598 -0.2796628 -0.7379678
vn -0.6867918 0.02884604 -0.7262816
vn -0.6058546 0.01955178 -0.7953352
vn -0.6582266 0.07508893 -0.7490656
vn -0.7143975 0.01725793 -0.6995273
vn -0.6467609 0.05886427 -0.7604178
vn -0.4347916 0.03820451 -0.8997203
vn -0.2897018 0.009026679 -0.9570744
vn -0.5354263 0.05254633 -0.8429458
vn -0.07156567 -0.06572323 -0.9952682
vn -0.1300551 -0.7654756 -0.6301847
vn -0.3111278 -0.3343726 -0.8896036
vn -0.05198489 -0.008856745 -0.9986086
vn 0.0181479 0.1324858 -0.9910188
vn 0.07225638 -0.7693551 -0.6347219
vn -0.6762932 0.03253239 -0.7359138
vn -0.4821463 0.09590437 -0.8708256
vn -0.4065932 0.5581369 -0.7233016
vn -0.1569133 0.1567896 -0.9750873
vn -0.1654876 0.2823981 -0.9449155
vn -0.6403025 0.3995494 -0.6560282
vn -0.2398459 0.9589636 0.1512048
vn -0.5037137 0.8608386 -0.07231392
vn 0.02626908 0.9994098 -0.02213466
vn 0.4562001 0.8112973 -0.3656203
vn 0.07296421 0.3574145 -0.9310914
vn -0.5584829 0.5247414 -0.642451
vn -0.2691132 0.5939 -0.7581958
vn -0.5722325 0.363686 -0.7350391
vn -0.01317273 0.9910137 0.1331102
vn -0.1812322 0.9458578 0.2692732
vn 0.1059686 0.9857612 -0.1305582
vn 0.4716293 0.8141449 -0.3387239
vn 0.1526728 0.9877813 0.03129059
vn 0.09103943 0.9958153 0.007973391
vn -0.1293501 0.9354179 0.3290317
vn -0.7219508 0.5978971 0.3482901
vn 0.6986623 0.4179313 -0.5806931
vn 0.8458486 0.3060518 -0.4368895
vn -0.02590772 0.07398661 -0.9969226
vn 0.6732334 0.4274839 -0.6033359
vn 0.7390931 0.158022 -0.6548057
vn 0.7453153 -0.02161914 -0.6663616
vn 0.7145004 -0.2640076 -0.6479114
vn 0.8603954 0.239637 -0.4497709
vn -0.01279787 0.6145539 -0.7887709
vn 0.1301646 0.6280712 -0.767192
vn -0.4008596 0.9148058 -0.04941659
vn 0.3146891 0.9449083 -0.09010527
vn -0.1100598 0.6715358 0.7327527
vn 0.189043 0.9263594 0.3257625
vn -0.258806 0.9600928 -0.1060251
vn 0.1698927 0.5589743 -0.8115937
vn 0.2854819 0.111111 -0.9519213
vn 0.190959 0.008565642 -0.9815607
vn 0.4763293 0.1121726 -0.8720824
vn 0.693279 -0.03526888 -0.7198058
vn 0.6561557 -0.02441089 -0.7542306
vn 0.5925509 -0.03952441 -0.8045627
vn 0.3722291 -0.3430816 -0.8624039
vn 0.1304023 -0.6475937 -0.7507448
vn 0.7725213 0.04374512 -0.6334803
vn 0.7037444 -0.01292679 -0.7103357
vn 0.4223389 -0.05141595 -0.9049785
vn 0.682121 0.005278065 -0.7312204
vn 0.4826782 -0.7105492 -0.5119976
vn 0.5258487 -0.7670821 -0.3675163
vn 0.5165439 -0.694193 -0.5012769
vn 0.2985773 -0.682652 -0.6669617
vn 0.179306 0.1694201 -0.9690955
vn 0.319516 0.2239705 -0.9207316
vn -0.5610989 0.08067495 -0.823808
vn -0.5564287 0.1074948 -0.8239126
vn -0.6116738 0.1647113 -0.7737734
vn -0.5297539 0.4216444 -0.7359191
vn -0.5202512 -0.2708884 -0.8099125
vn -0.2271139 -0.7936349 -0.5644139
vn -0.579634 0.2780659 -0.7659659
vn -0.8637915 -0.05212041 -0.5011466
vn -0.7875283 -0.3997858 -0.46901
vn 0.2404913 -0.009156232 -0.9706081
vn -0.7015492 0.1443002 -0.6978583
vn 0.2849468 0.3810421 -0.8795522
vn -0.6315158 0.4216945 -0.6506624
vn 0.7064973 0.08420649 -0.7026883
vn -0.6469766 0.4016253 -0.6481653
vn 0.6046647 0.2309203 -0.7622705
vn 0.4307308 0.5926821 -0.6805872
vn 0.5628838 0.1547556 -0.811919
vn 0.7042344 0.6555684 -0.272551
vn 0.1644119 0.9763362 -0.1404851
vn 0.2208919 0.9716355 0.0844468
vn 0.3879296 0.2602205 -0.8841923
vn -0.2951185 0.8892973 -0.3493643
vn -0.3050551 0.9226933 -0.235751
vn -0.2837057 0.9577802 0.04656363
vn -0.1296238 0.9804927 0.1477562
vn 0.4461317 0.7089663 0.5461989
vn 0.2194028 0.9748678 0.0386679
vn 0.3317344 0.2983815 -0.8949417
vn -0.6627468 0.1715125 -0.7289377
vn 0.7488777 -0.5803686 0.3199291
vn 0.1179128 -0.99266 -0.02688433
vn 0.2635475 -0.9229451 0.2805616
vn 0.04254759 -0.9961693 0.07639663
vn 0.5957429 -0.2497077 0.7633718
vn 0.6287365 -0.4929102 0.60144
vn 0.3305675 -0.9025881 -0.2757896
vn 0.6672156 -0.4892485 -0.5616577
vn -0.2744569 -0.914531 -0.2971641
vn -0.2775398 -0.6065256 -0.7450492
vn -0.6058273 -0.4908638 -0.6261199
vn -0.4008576 -0.8004733 -0.4455957
vn -0.1124815 -0.9538281 -0.2784958
vn -0.01968222 -0.9997991 0.003791963
vn 0.2981549 -0.6375653 0.7103621
vn -0.02437963 -0.9956071 0.09039967
vn 0.1235618 -0.7117915 0.6914372
vn 0.09626503 -0.5855814 0.8048773
vn 0.02290217 -0.7077855 0.7060561
vn -0.04401784 -0.99903 -0.001182894
vn -0.1300551 -0.7654756 -0.6301847
vn 0.07225638 -0.7693551 -0.6347219
vn -0.3111278 -0.3343726 -0.8896036
vn -0.6141598 -0.2796628 -0.7379678
vn 0.001802837 -0.9013632 0.4330602
vn 0.04116476 -0.9972451 -0.06170697
vn -0.1818121 -0.7621852 0.6213036
vn -0.2178573 -0.9178218 0.3318757
vn 0.1429958 -0.9457446 -0.2917523
vn -0.364888 -0.7768953 0.5131183
vn 0.5165439 -0.694193 -0.5012769
vn 0.5258487 -0.7670821 -0.3675163
vn 0.01630259 -0.9997336 -0.01633498
vn -0.5208508 -0.750891 0.4060508
vn -0.4441665 -0.8250903 0.3492021
vn -0.2271139 -0.7936349 -0.5644139
vn -0.7977889 -0.6018637 -0.03595714
vn 0.4826782 -0.7105492 -0.5119976
vn 0.2985773 -0.682652 -0.6669617
vn 0.3722291 -0.3430816 -0.8624039
vn 0.1304023 -0.6475937 -0.7507448
vn 0.4785348 -0.718425 0.5048464
vn 0.4785348 -0.718425 0.5048465
vn 0.3824961 -0.8865472 0.2602513
vn 0.3824962 -0.8865472 0.2602513
vn 0.9919199 -0.05718237 0.1132482
vn 0.6672156 -0.4892485 -0.5616577
vn 0.7488777 -0.5803686 0.3199291
vn 0.7291813 0.1487136 -0.6679662
vn 0.960824 0.1851597 0.2062359
vn 0.7334946 0.2932136 -0.6131976
vn 0.7752118 -0.04886631 0.6298084
vn 0.6287365 -0.4929102 0.60144
vn 0.7788328 0.1028965 0.6187339
vn 0.8603954 0.239637 -0.4497709
vn 0.5957429 -0.2497077 0.7633718
vn 0.9435257 -0.04437969 0.3283134
vn 0.7185057 0.0557302 0.6932847
vn 0.7145004 -0.2640076 -0.6479114
vn 0.98434 0.1129576 0.1353345
vn 0.9148907 0.08636933 0.3943543
vn 0.7453153 -0.02161914 -0.6663616
vn 0.7390931 0.158022 -0.6548057
vn 0.6732334 0.4274839 -0.6033359
vn 0.8458486 0.3060518 -0.4368895
vn 0.9724389 0.1957646 0.1266447
vn 0.6986623 0.4179313 -0.5806931
vn 0.4562001 0.8112973 -0.3656203
vn 0.6336582 0.5861886 0.5048367
vn 0.7544981 0.09572292 0.649284
vn 0.02626908 0.9994098 -0.02213466
vn 0.6107681 0.08555377 0.7871741
vn -0.2398459 0.9589636 0.1512048
vn 0.5664107 0.4639682 0.6811111
vn 0.3503258 0.4093242 0.8424521
vn 0.5523844 -0.004791337 0.8335757
vn 0.3557174 -0.05231633 0.9331281
vn -0.5037137 0.8608386 -0.07231392
vn 0.3072125 -0.007956102 0.9516076
vn 0.3516127 0.0321051 0.9355949
vn 0.4070168 0.07613706 0.910242
vn 0.2918228 0.01570186 0.9563435
vn 0.1319091 1.991423E-05 0.9912617
vn 0.1235618 -0.7117915 0.6914372
vn 0.4376248 -0.05055586 0.8977354
vn 0.545783 0.031217 0.8373449
vn 0.6677393 0.05499523 0.7423609
vn 0.2981549 -0.6375653 0.7103621
vn 0.6267338 -0.02819934 0.7787231
vn 0.6334714 -0.01992123 0.7735096
vn 0.1177 -0.02686933 0.9926857
vn 0.09626503 -0.5855814 0.8048773
vn 0.02290217 -0.7077855 0.7060561
vn -0.1110774 -0.2092754 0.9715275
vn -0.01813737 -0.06832951 0.9974979
vn 0.001802837 -0.9013632 0.4330602
vn -0.1818121 -0.7621852 0.6213036
vn -0.5026204 -0.3147695 0.8051664
vn -0.3069961 -0.001016669 0.9517102
vn -0.5609601 0.07354856 0.8245692
vn -0.6499624 -0.02362528 0.7595991
vn -0.6619558 -0.05755807 0.7473296
vn -0.2178573 -0.9178218 0.3318757
vn -0.364888 -0.7768953 0.5131183
vn -0.591347 -0.253922 0.7653968
vn -0.7303185 -0.01942674 0.6828306
vn -0.5208508 -0.750891 0.4060508
vn -0.4441665 -0.8250903 0.3492021
vn -0.7388163 -0.2213825 0.6365064
vn -0.4325956 -0.01470175 0.9014682
vn -0.6422458 -0.01468057 0.7663581
vn -0.7166983 0.001999401 0.6973804
vn -0.868692 0.03730896 0.4939457
vn -0.1111887 0.002318701 0.9937966
vn -0.7666776 0.02528982 0.641534
vn -0.875887 -0.0119745 0.4823677
vn -0.9915037 0.094276 -0.08962388
vn -0.7977889 -0.6018637 -0.03595714
vn -0.9739691 0.2186046 -0.05996935
vn -0.9820824 0.1563583 0.1051963
vn -0.5610989 0.08067495 -0.823808
vn -0.5564287 0.1074948 -0.8239126
vn -0.6116738 0.1647113 -0.7737734
vn -0.5297539 0.4216444 -0.7359191
vn -0.5202512 -0.2708884 -0.8099125
vn -0.2271139 -0.7936349 -0.5644139
vn -0.579634 0.2780659 -0.7659659
vn -0.7135195 0.0238777 0.7002283
vn -0.8002673 0.04670871 0.5978215
vn -0.6894744 0.4035512 0.6014744
vn -0.9467747 0.2367019 0.2181514
vn -0.2951185 0.8892973 -0.3493643
vn 0.2208919 0.9716355 0.0844468
vn 0.1644119 0.9763362 -0.1404851
vn -0.3050551 0.9226933 -0.235751
vn -0.2837057 0.9577802 0.04656363
vn -0.6627468 0.1715125 -0.7289377
vn -0.6469766 0.4016253 -0.6481653
vn -0.9235008 0.2988071 0.2405424
vn -0.8637915 -0.05212041 -0.5011466
vn -0.7875283 -0.3997858 -0.46901
vn -0.7015492 0.1443002 -0.6978583
vn -0.6315158 0.4216945 -0.6506624
vn -0.7385568 0.2882726 0.6094528
vn -0.1296238 0.9804927 0.1477562
vn -0.429227 0.4933673 0.7565401
vn 0.4461317 0.7089663 0.5461989
vn -0.4851879 0.2884031 0.8254795
vn -0.557811 0.0240804 0.8296186
vn -0.6585299 -0.07749258 0.7485541
vn 0.2194028 0.9748678 0.0386679
vn -0.2438316 0.4858434 0.8393463
vn -0.258806 0.9600928 -0.1060251
vn 0.189043 0.9263594 0.3257625
vn -0.03148687 0.00112983 0.9995035
vn -0.03545852 -0.05640325 0.9977782
vn 0.1145016 0.0401015 0.9926133
vn -0.1100598 0.6715358 0.7327527
vn 0.2147446 0.6025774 0.7686256
vn -0.4008596 0.9148058 -0.04941659
vn 0.3146891 0.9449083 -0.09010527
vn -0.1812322 0.9458578 0.2692732
vn 0.2639066 0.1407457 0.9542242
vn -0.1293501 0.9354179 0.3290317
vn 0.09103943 0.9958153 0.007973391
vn 0.1526728 0.9877813 0.03129059
vn 0.4716293 0.8141449 -0.3387239
vn 0.1059686 0.9857612 -0.1305582
vn -0.01317273 0.9910137 0.1331102
vn -0.7219508 0.5978971 0.3482901
g IceWall_Bunker_New_0
f 3/3/3 2/2/2 1/1/1
f 1/1/1 4/4/4 3/3/3
f 5/5/5 4/4/4 1/1/1
f 5/5/5 6/6/6 4/4/4
f 7/7/7 5/5/5 1/1/1
f 2/2/2 7/7/7 1/1/1
f 7/7/7 2/2/2 8/8/8
f 7/7/7 9/9/9 5/5/5
f 9/9/9 7/7/7 8/8/8
f 10/10/10 9/9/9 8/8/8
f 10/10/10 11/11/11 9/9/9
f 11/11/11 12/12/12 9/9/9
f 9/9/9 12/12/12 5/5/5
f 13/13/13 5/5/5 12/12/12
f 11/11/11 14/14/14 12/12/12
f 12/12/12 14/14/14 13/13/13
f 14/14/14 11/11/11 15/15/15
f 15/15/15 11/11/11 16/16/16
f 16/16/16 11/11/11 10/10/10
f 16/16/16 17/17/17 15/15/15
f 17/17/17 18/18/18 15/15/15
f 15/15/15 18/18/18 14/14/14
f 17/17/17 16/16/16 19/19/19
f 19/19/19 16/16/16 20/20/20
f 20/20/20 16/16/16 21/21/21
f 21/21/21 16/16/16 10/10/10
f 19/19/19 22/22/22 17/17/17
f 23/23/23 17/17/17 22/22/22
f 20/20/20 24/24/24 19/19/19
f 18/18/18 25/25/25 14/14/14
f 25/25/25 13/13/13 14/14/14
f 26/26/26 25/25/25 18/18/18
f 25/25/25 27/27/27 13/13/13
f 28/28/28 26/26/26 18/18/18
f 17/17/17 28/28/28 18/18/18
f 17/17/17 23/23/23 28/28/28
f 29/29/29 26/26/26 28/28/28
f 29/29/29 28/28/28 23/23/23
f 27/27/27 25/25/25 30/30/30
f 31/31/31 27/27/27 30/30/30
f 32/32/32 31/31/31 30/30/30
f 33/33/33 27/27/27 31/31/31
f 33/33/33 34/34/34 27/27/27
f 34/34/34 35/35/35 27/27/27
f 29/29/29 36/36/36 26/26/26
f 36/36/36 37/37/37 26/26/26
f 37/37/37 38/38/38 26/26/26
f 26/26/26 38/38/38 25/25/25
f 25/25/25 38/38/38 30/30/30
f 39/39/39 30/30/30 38/38/38
f 32/32/32 30/30/30 39/39/39
f 29/29/29 40/40/40 36/36/36
f 38/38/38 37/37/37 41/41/41
f 41/41/41 39/39/39 38/38/38
f 41/41/41 37/37/37 42/42/42
f 42/42/42 37/37/37 43/43/43
f 37/37/37 36/36/36 43/43/43
f 43/43/43 36/36/36 44/44/44
f 44/44/44 36/36/36 45/45/45
f 46/46/46 45/45/45 36/36/36
f 46/46/46 36/36/36 40/40/40
f 47/47/47 35/35/35 34/34/34
f 35/35/35 47/47/47 48/48/48
f 49/49/49 35/35/35 48/48/48
f 48/48/48 50/50/50 49/49/49
f 51/51/51 49/49/49 50/50/50
f 52/52/52 49/49/49 51/51/51
f 52/52/52 53/53/53 49/49/49
f 49/49/49 53/53/53 5/5/5
f 5/5/5 53/53/53 54/54/54
f 54/54/54 6/6/6 5/5/5
f 13/13/13 49/49/49 5/5/5
f 13/13/13 27/27/27 49/49/49
f 49/49/49 27/27/27 35/35/35
f 57/57/57 56/56/56 55/55/55
f 55/55/55 56/56/56 29/29/29
f 58/58/58 56/56/56 57/57/57
f 40/40/40 56/56/56 58/58/58
f 56/56/56 40/40/40 29/29/29
f 57/57/57 55/55/55 59/59/59
f 23/23/23 55/55/55 29/29/29
f 59/59/59 55/55/55 60/60/60
f 60/60/60 55/55/55 61/61/61
f 61/61/61 55/55/55 62/62/62
f 62/62/62 55/55/55 23/23/23
f 62/62/62 23/23/23 63/63/63
f 22/22/22 63/63/63 23/23/23
f 64/64/64 63/63/63 22/22/22
f 64/64/64 22/22/22 19/19/19
f 63/63/63 64/64/64 65/65/65
f 65/65/65 64/64/64 66/66/66
f 66/66/66 67/67/67 65/65/65
f 68/68/68 63/63/63 65/65/65
f 67/67/67 68/68/68 65/65/65
f 66/66/66 64/64/64 69/69/69
f 69/69/69 64/64/64 70/70/70
f 64/64/64 19/19/19 70/70/70
f 67/67/67 66/66/66 71/71/71
f 72/72/72 71/71/71 66/66/66
f 72/72/72 73/73/73 71/71/71
f 70/70/70 19/19/19 24/24/24
f 72/72/72 66/66/66 74/74/74
f 74/74/74 66/66/66 75/75/75
f 76/76/76 75/75/75 66/66/66
f 77/77/77 76/76/76 66/66/66
f 77/77/77 66/66/66 69/69/69
f 75/75/75 78/78/78 74/74/74
f 79/79/79 74/74/74 78/78/78
f 80/80/80 74/74/74 79/79/79
f 72/72/72 74/74/74 80/80/80
f 72/72/72 80/80/80 73/73/73
f 73/73/73 80/80/80 81/81/81
f 82/82/82 73/73/73 81/81/81
f 83/83/83 81/81/81 80/80/80
f 80/80/80 84/84/84 83/83/83
f 80/80/80 79/79/79 84/84/84
f 85/85/85 79/79/79 78/78/78
f 85/85/85 78/78/78 86/86/86
f 87/87/87 79/79/79 85/85/85
f 79/79/79 87/87/87 84/84/84
f 73/73/73 82/82/82 88/88/88
f 88/88/88 89/89/89 73/73/73
f 73/73/73 89/89/89 90/90/90
f 91/91/91 90/90/90 89/89/89
f 91/91/91 92/92/92 90/90/90
f 92/92/92 73/73/73 90/90/90
f 93/93/93 92/92/92 91/91/91
f 94/94/94 73/73/73 92/92/92
f 94/94/94 71/71/71 73/73/73
f 93/93/93 95/95/95 92/92/92
f 95/95/95 96/96/96 92/92/92
f 96/96/96 94/94/94 92/92/92
f 96/96/96 97/97/97 94/94/94
f 97/97/97 98/98/98 94/94/94
f 94/94/94 98/98/98 68/68/68
f 97/97/97 99/99/99 98/98/98
f 67/67/67 94/94/94 68/68/68
f 71/71/71 94/94/94 67/67/67
f 100/100/100 97/97/97 96/96/96
f 96/96/96 101/101/101 100/100/100
f 102/102/102 101/101/101 96/96/96
f 102/102/102 96/96/96 95/95/95
f 103/103/103 101/101/101 102/102/102
f 104/104/104 97/97/97 100/100/100
f 105/105/105 97/97/97 104/104/104
f 106/106/106 97/97/97 105/105/105
f 99/99/99 97/97/97 106/106/106
f 107/107/107 99/99/99 106/106/106
f 108/108/108 99/99/99 107/107/107
f 109/109/109 99/99/99 108/108/108
f 98/98/98 99/99/99 109/109/109
f 98/98/98 109/109/109 62/62/62
f 61/61/61 62/62/62 109/109/109
f 108/108/108 61/61/61 109/109/109
f 103/103/103 102/102/102 110/110/110
f 110/110/110 102/102/102 95/95/95
f 98/98/98 62/62/62 63/63/63
f 98/98/98 63/63/63 68/68/68
f 113/113/113 112/112/112 111/111/111
f 114/114/114 112/112/112 113/113/113
f 115/115/115 114/114/114 113/113/113
f 115/115/115 113/113/113 116/116/116
f 116/116/116 113/113/113 111/111/111
f 112/112/112 117/117/117 111/111/111
f 117/117/117 118/118/118 111/111/111
f 112/112/112 114/114/114 119/119/119
f 112/112/112 119/119/119 120/120/120
f 118/118/118 117/117/117 120/120/120
f 117/117/117 112/112/112 120/120/120
f 119/119/119 121/121/121 120/120/120
f 119/119/119 122/122/122 121/121/121
f 119/119/119 114/114/114 122/122/122
f 122/122/122 114/114/114 123/123/123
f 114/114/114 124/124/124 123/123/123
f 123/123/123 124/124/124 125/125/125
f 126/126/126 123/123/123 125/125/125
f 127/127/127 126/126/126 125/125/125
f 128/128/128 126/126/126 127/127/127
f 129/129/129 126/126/126 128/128/128
f 130/130/130 126/126/126 129/129/129
f 123/123/123 126/126/126 131/131/131
f 126/126/126 130/130/130 131/131/131
f 131/131/131 130/130/130 132/132/132
f 123/123/123 131/131/131 133/133/133
f 133/133/133 134/134/134 123/123/123
f 123/123/123 134/134/134 122/122/122
f 122/122/122 134/134/134 121/121/121
f 135/135/135 132/132/132 130/130/130
f 129/129/129 135/135/135 130/130/130
f 135/135/135 136/136/136 132/132/132
f 136/136/136 135/135/135 137/137/137
f 136/136/136 137/137/137 138/138/138
f 139/139/139 136/136/136 138/138/138
f 138/138/138 140/140/140 139/139/139
f 141/141/141 139/139/139 140/140/140
f 140/140/140 142/142/142 141/141/141
f 140/140/140 143/143/143 142/142/142
f 143/143/143 140/140/140 144/144/144
f 145/145/145 143/143/143 144/144/144
f 146/146/146 143/143/143 145/145/145
f 146/146/146 145/145/145 147/147/147
f 143/143/143 148/148/148 142/142/142
f 143/143/143 149/149/149 148/148/148
f 146/146/146 149/149/149 143/143/143
f 139/139/139 141/141/141 150/150/150
f 139/139/139 150/150/150 151/151/151
f 151/151/151 136/136/136 139/139/139
f 132/132/132 136/136/136 151/151/151
f 153/153/153 125/125/125 152/152/152
f 114/114/114 155/155/155 154/154/154
f 158/158/158 157/157/157 156/156/156
f 159/159/159 156/156/156 157/157/157
f 159/159/159 160/160/160 156/156/156
f 161/161/161 160/160/160 159/159/159
f 160/160/160 162/162/162 156/156/156
f 162/162/162 158/158/158 156/156/156
f 158/158/158 162/162/162 163/163/163
f 162/162/162 160/160/160 164/164/164
f 165/165/165 164/164/164 160/160/160
f 161/161/161 165/165/165 160/160/160
f 162/162/162 166/166/166 163/163/163
f 167/167/167 164/164/164 165/165/165
f 167/167/167 168/168/168 164/164/164
f 169/169/169 167/167/167 165/165/165
f 170/170/170 168/168/168 167/167/167
f 169/169/169 170/170/170 167/167/167
f 171/171/171 168/168/168 170/170/170
f 169/169/169 172/172/172 170/170/170
f 170/170/170 172/172/172 173/173/173
f 170/170/170 173/173/173 174/174/174
f 174/174/174 175/175/175 170/170/170
f 175/175/175 171/171/171 170/170/170
f 175/175/175 176/176/176 171/171/171
f 177/177/177 176/176/176 175/175/175
f 176/176/176 177/177/177 178/178/178
f 176/176/176 178/178/178 179/179/179
f 179/179/179 180/180/180 176/176/176
f 176/176/176 180/180/180 171/171/171
f 171/171/171 180/180/180 168/168/168
f 178/178/178 181/181/181 179/179/179
f 180/180/180 182/182/182 168/168/168
f 179/179/179 181/181/181 183/183/183
f 179/179/179 183/183/183 184/184/184
f 180/180/180 179/179/179 184/184/184
f 182/182/182 180/180/180 184/184/184
f 184/184/184 185/185/185 182/182/182
f 182/182/182 185/185/185 186/186/186
f 185/185/185 187/187/187 186/186/186
f 183/183/183 188/188/188 184/184/184
f 185/185/185 189/189/189 187/187/187
f 186/186/186 187/187/187 190/190/190
f 190/190/190 191/191/191 186/186/186
f 191/191/191 190/190/190 192/192/192
f 193/193/193 192/192/192 190/190/190
f 187/187/187 189/189/189 193/193/193
f 193/193/193 190/190/190 187/187/187
f 192/192/192 193/193/193 194/194/194
f 192/192/192 194/194/194 195/195/195
f 196/196/196 192/192/192 195/195/195
f 196/196/196 191/191/191 192/192/192
f 197/197/197 191/191/191 196/196/196
f 197/197/197 186/186/186 191/191/191
f 195/195/195 194/194/194 198/198/198
f 196/196/196 195/195/195 198/198/198
f 199/199/199 196/196/196 198/198/198
f 200/200/200 196/196/196 199/199/199
f 200/200/200 197/197/197 196/196/196
f 199/199/199 166/166/166 200/200/200
f 166/166/166 199/199/199 198/198/198
f 200/200/200 168/168/168 197/197/197
f 194/194/194 193/193/193 201/201/201
f 194/194/194 201/201/201 202/202/202
f 203/203/203 202/202/202 201/201/201
f 201/201/201 204/204/204 203/203/203
f 201/201/201 205/205/205 204/204/204
f 201/201/201 193/193/193 205/205/205
f 168/168/168 186/186/186 197/197/197
f 168/168/168 182/182/182 186/186/186
f 200/200/200 164/164/164 168/168/168
f 206/206/206 203/203/203 204/204/204
f 204/204/204 207/207/207 206/206/206
f 208/208/208 207/207/207 204/204/204
f 209/209/209 208/208/208 204/204/204
f 205/205/205 209/209/209 204/204/204
f 208/208/208 209/209/209 210/210/210
f 209/209/209 211/211/211 210/210/210
f 210/210/210 211/211/211 212/212/212
f 210/210/210 212/212/212 208/208/208
f 208/208/208 213/213/213 207/207/207
f 214/214/214 213/213/213 208/208/208
f 212/212/212 214/214/214 208/208/208
f 215/215/215 214/214/214 212/212/212
f 212/212/212 216/216/216 215/215/215
f 215/215/215 216/216/216 217/217/217
f 217/217/217 214/214/214 215/215/215
f 218/218/218 217/217/217 216/216/216
f 218/218/218 216/216/216 219/219/219
f 209/209/209 220/220/220 211/211/211
f 220/220/220 221/221/221 211/211/211
f 221/221/221 222/222/222 211/211/211
f 212/212/212 222/222/222 216/216/216
f 211/211/211 222/222/222 212/212/212
f 222/222/222 223/223/223 216/216/216
f 216/216/216 223/223/223 219/219/219
f 224/224/224 220/220/220 209/209/209
f 223/223/223 222/222/222 225/225/225
f 226/226/226 223/223/223 225/225/225
f 223/223/223 226/226/226 227/227/227
f 228/228/228 218/218/218 219/219/219
f 219/219/219 229/229/229 228/228/228
f 219/219/219 230/230/230 229/229/229
f 219/219/219 223/223/223 230/230/230
f 230/230/230 223/223/223 227/227/227
f 230/230/230 227/227/227 231/231/231
f 227/227/227 232/232/232 231/231/231
f 231/231/231 233/233/233 230/230/230
f 234/234/234 230/230/230 233/233/233
f 229/229/229 230/230/230 234/234/234
f 229/229/229 235/235/235 228/228/228
f 228/228/228 235/235/235 236/236/236
f 229/229/229 237/237/237 235/235/235
f 237/237/237 229/229/229 234/234/234
f 238/238/238 225/225/225 222/222/222
f 225/225/225 239/239/239 226/226/226
f 240/240/240 239/239/239 225/225/225
f 238/238/238 240/240/240 225/225/225
f 240/240/240 241/241/241 239/239/239
f 240/240/240 242/242/242 241/241/241
f 240/240/240 243/243/243 242/242/242
f 240/240/240 244/244/244 243/243/243
f 240/240/240 245/245/245 244/244/244
f 240/240/240 246/246/246 245/245/245
f 241/241/241 242/242/242 247/247/247
f 241/241/241 247/247/247 248/248/248
f 239/239/239 241/241/241 248/248/248
f 239/239/239 248/248/248 249/249/249
f 226/226/226 239/239/239 249/249/249
f 250/250/250 226/226/226 249/249/249
f 250/250/250 249/249/249 251/251/251
f 249/249/249 252/252/252 251/251/251
f 249/249/249 253/253/253 252/252/252
f 248/248/248 253/253/253 249/249/249
f 250/250/250 227/227/227 226/226/226
f 227/227/227 250/250/250 232/232/232
f 255/255/255 246/246/246 254/254/254
f 256/256/256 255/255/255 254/254/254
f 256/256/256 257/257/257 255/255/255
f 256/256/256 254/254/254 238/238/238
f 258/258/258 256/256/256 238/238/238
f 258/258/258 238/238/238 259/259/259
f 259/259/259 238/238/238 260/260/260
f 256/256/256 261/261/261 257/257/257
f 256/256/256 258/258/258 261/261/261
f 262/262/262 258/258/258 259/259/259
f 262/262/262 259/259/259 220/220/220
f 220/220/220 259/259/259 260/260/260
f 262/262/262 263/263/263 258/258/258
f 263/263/263 261/261/261 258/258/258
f 262/262/262 264/264/264 263/263/263
f 220/220/220 260/260/260 221/221/221
f 260/260/260 238/238/238 221/221/221
f 238/238/238 222/222/222 221/221/221
f 265/265/265 262/262/262 220/220/220
f 265/265/265 220/220/220 266/266/266
f 266/266/266 220/220/220 224/224/224
f 224/224/224 193/193/193 266/266/266
f 193/193/193 267/267/267 266/266/266
f 265/265/265 266/266/266 267/267/267
f 224/224/224 205/205/205 193/193/193
f 265/265/265 267/267/267 268/268/268
f 268/268/268 264/264/264 262/262/262
f 268/268/268 262/262/262 265/265/265
f 269/269/269 268/268/268 267/267/267
f 269/269/269 270/270/270 268/268/268
f 269/269/269 271/271/271 270/270/270
f 269/269/269 272/272/272 271/271/271
f 205/205/205 224/224/224 209/209/209
f 269/269/269 273/273/273 272/272/272
f 269/269/269 267/267/267 273/273/273
f 189/189/189 273/273/273 267/267/267
f 193/193/193 189/189/189 267/267/267
f 185/185/185 273/273/273 189/189/189
f 274/274/274 273/273/273 185/185/185
f 185/185/185 275/275/275 274/274/274
f 185/185/185 276/276/276 275/275/275
f 184/184/184 276/276/276 185/185/185
f 184/184/184 277/277/277 276/276/276
f 184/184/184 278/278/278 277/277/277
f 279/279/279 278/278/278 184/184/184
f 184/184/184 188/188/188 279/279/279
f 274/274/274 280/280/280 273/273/273
f 280/280/280 272/272/272 273/273/273
f 200/200/200 166/166/166 162/162/162
f 162/162/162 164/164/164 200/200/200
f 246/246/246 240/240/240 254/254/254
f 254/254/254 240/240/240 238/238/238
